<?xml version="1.0" standalone="no"?>
<!DOCTYPE svg PUBLIC "-//W3C//DTD SVG 20010904//EN"
 "http://www.w3.org/TR/2001/REC-SVG-20010904/DTD/svg10.dtd">
<svg version="1.0" xmlns="http://www.w3.org/2000/svg"
 width="230.000000pt" height="230.000000pt" viewBox="0 0 230.000000 230.000000"
 preserveAspectRatio="xMidYMid meet">
<metadata>
Created by potrace 1.14, written by Peter Selinger 2001-2017
</metadata>
<g transform="translate(0.000000,230.000000) scale(0.100000,-0.100000)"
fill="#000000" stroke="none">
<path d="M555 1484 c-187 -52 -357 -99 -377 -105 -30 -8 -38 -15 -38 -33 0
-21 5 -24 68 -29 126 -11 228 -67 282 -155 47 -79 63 -90 119 -84 91 8 214
-66 386 -232 l100 -97 150 46 c174 54 769 246 773 250 2 1 4 24 5 51 l2 48
-85 69 c-106 86 -202 140 -307 173 -70 22 -96 25 -183 22 l-102 -3 7 40 c5 32
4 38 -7 27 -10 -10 -16 -6 -30 20 -15 29 -17 30 -18 11 0 -13 -2 -23 -4 -23
-2 0 -32 13 -67 30 -65 30 -241 70 -301 69 -18 0 -186 -43 -373 -95z"/>
</g>
</svg>
